<svg xmlns="http://www.w3.org/2000/svg" viewBox="0 0 512 512">
	<path fill="white" fill-rule="evenodd" d="
		M 256 256
		m 0 -160
		a 160 160 0 1 0 0 320
		a 160 160 0 1 0 0 -320
		m 0 160
		m -70 -103.9230485
		a 120 120 0 1 1 0 207.8460969
		a 100 100 0 1 0 0 -207.8460969
	"/>
	<polygon fill="white" points="256,0 208,80 304,80"/>
	<polygon fill="white" points="0,256 80,208 80,304"/>
	<polygon fill="white" points="256,512 208,432 304,432"/>
	<polygon fill="white" points="512,256 432,208 432,304"/>
	<polygon fill="white" points="
		74.980664,74.980664
		97.608081,165.490332
		165.490332,97.608081
	"/>
	<polygon fill="white" points="
		437.019336,74.980664
		346.509668,97.608081
		414.391919,165.490332
	"/>
	<polygon fill="white" points="
		437.019336,437.019336
		346.509668,414.391919
		414.391919,346.509668
	"/>
	<polygon fill="white" points="
		74.980664,437.019336
		97.608081,346.509668
		165.490332,414.391919
	"/>
</svg>